<svg width="20" height="20" viewBox="0 0 20 20" fill="none" xmlns="http://www.w3.org/2000/svg">
<path d="M15 0C14.7348 0 14.4804 0.105357 14.2929 0.292893C14.1054 0.48043 14 0.734784 14 1C14 1.26522 14.1054 1.51957 14.2929 1.70711C14.4804 1.89464 14.7348 2 15 2H16.586L12.293 6.293C12.1108 6.4816 12.01 6.7342 12.0123 6.9964C12.0146 7.2586 12.1198 7.50941 12.3052 7.69482C12.4906 7.88023 12.7414 7.9854 13.0036 7.98767C13.2658 7.98995 13.5184 7.88916 13.707 7.707L18 3.414V5C18 5.26522 18.1054 5.51957 18.2929 5.70711C18.4804 5.89464 18.7348 6 19 6C19.2652 6 19.5196 5.89464 19.7071 5.70711C19.8946 5.51957 20 5.26522 20 5V1C20 0.734784 19.8946 0.48043 19.7071 0.292893C19.5196 0.105357 19.2652 0 19 0H15ZM2 16.586V15C2 14.7348 1.89464 14.4804 1.70711 14.2929C1.51957 14.1054 1.26522 14 1 14C0.734784 14 0.48043 14.1054 0.292893 14.2929C0.105357 14.4804 0 14.7348 0 15V19C0 19.2652 0.105357 19.5196 0.292893 19.7071C0.48043 19.8946 0.734784 20 1 20H5C5.26522 20 5.51957 19.8946 5.70711 19.7071C5.89464 19.5196 6 19.2652 6 19C6 18.7348 5.89464 18.4804 5.70711 18.2929C5.51957 18.1054 5.26522 18 5 18H3.414L7.707 13.707C7.88916 13.5184 7.98995 13.2658 7.98767 13.0036C7.9854 12.7414 7.88023 12.4906 7.69482 12.3052C7.50941 12.1198 7.2586 12.0146 6.9964 12.0123C6.7342 12.01 6.4816 12.1108 6.293 12.293L2 16.586Z" fill="black"/>
</svg>
