<svg width="1210" height="1021" viewBox="0 0 1210 1021" fill="none" xmlns="http://www.w3.org/2000/svg">
<path d="M48.8889 46.0021C35.9227 46.0021 23.4877 51.1382 14.3192 60.2806C5.15078 69.423 0 81.8227 0 94.752C0 107.681 5.15078 120.081 14.3192 129.223C23.4877 138.366 35.9227 143.502 48.8889 143.502H91.3815C130.199 143.502 164.04 169.908 173.477 207.562L285.707 655.376C296.609 698.763 335.573 728.501 380.404 728.501H990.049C1034.2 728.501 1071.69 699.251 1083.28 656.838L1193.01 254.526C1201.57 223.163 1177.96 192.252 1145.45 192.252V192.252C1123.14 192.252 1103.61 207.236 1097.83 228.786L1006.81 568.283C996.896 605.278 963.369 631.001 925.067 631.001H446.402C407.582 631.001 373.739 604.59 364.305 566.934L252.12 119.127C246.823 98.1269 234.612 79.5068 217.442 66.2486C200.272 52.9903 179.138 45.8609 157.422 46.0021H48.8889ZM928.889 728.501C848.467 728.501 782.222 794.557 782.222 874.75C782.222 954.944 848.467 1021 928.889 1021C1009.31 1021 1075.56 954.944 1075.56 874.75C1075.56 794.557 1009.31 728.501 928.889 728.501ZM488.889 728.501C408.467 728.501 342.222 794.557 342.222 874.75C342.222 954.944 408.467 1021 488.889 1021C569.311 1021 635.556 954.944 635.556 874.75C635.556 794.557 569.311 728.501 488.889 728.501ZM488.889 826C516.462 826 537.778 847.255 537.778 874.75C537.778 902.245 516.462 923.5 488.889 923.5C461.316 923.5 440 902.245 440 874.75C440 847.255 461.316 826 488.889 826ZM928.889 826C956.462 826 977.778 847.255 977.778 874.75C977.778 902.245 956.462 923.5 928.889 923.5C901.316 923.5 880 902.245 880 874.75C880 847.255 901.316 826 928.889 826Z" fill="white" fill-opacity="0.35"/>
<path d="M631.667 243.749V48.8889C631.667 21.8883 653.555 0 680.556 0C707.556 0 729.444 21.8883 729.444 48.8889V243.749H773.743C811.472 243.749 830.339 289.391 803.623 316.032L740.316 379.159C707.284 412.097 653.828 412.097 620.795 379.159L557.488 316.032C530.772 289.391 549.639 243.749 587.368 243.749H631.667Z" fill="white" fill-opacity="0.35"/>
</svg>
